<svg id="Layer_1" data-name="Layer 1" xmlns="http://www.w3.org/2000/svg" viewBox="0 0 135.961 135.964"><defs><style>.cls-1{fill:#1b1c29;}</style></defs><title>JS-SYMBOL-POSITIVE</title><path class="cls-1" d="M122.325,3.337,33.7,91.968a7.282,7.282,0,0,0,10.3,10.3l88.627-88.631a7.282,7.282,0,0,0-10.3-10.3Z"/><path class="cls-1" d="M116.661,51.234,74.133,93.762a7.282,7.282,0,0,0,10.3,10.3l42.527-42.527a7.282,7.282,0,0,0-10.3-10.3Z"/><path class="cls-1" d="M37.053,63.964A7.259,7.259,0,0,0,42.2,61.831L84.73,19.3a7.282,7.282,0,1,0-10.3-10.3L31.9,51.533a7.282,7.282,0,0,0,5.149,12.431Z"/><path class="cls-1" d="M106.565,103.559l-18.77,18.77a7.282,7.282,0,0,0,10.3,10.3l18.77-18.77a7.282,7.282,0,0,0-10.3-10.3Z"/><path class="cls-1" d="M32.4,19.1a7.283,7.283,0,0,0-10.3,0L3.337,37.871a7.282,7.282,0,0,0,10.3,10.3L32.4,29.4A7.283,7.283,0,0,0,32.4,19.1Z"/></svg>