<svg id="Layer_1" data-name="Layer 1" xmlns="http://www.w3.org/2000/svg" viewBox="0 0 726.02 142.216"><defs><style>.cls-1{fill:#fff;}</style></defs><title>JS-FULL-LOGO-REVERSED</title><path class="cls-1" d="M126.032,6.462,37.4,95.094a7.282,7.282,0,0,0,10.3,10.3L136.33,16.761a7.282,7.282,0,1,0-10.3-10.3Z"/><path class="cls-1" d="M120.367,54.36,77.839,96.887a7.282,7.282,0,0,0,10.3,10.3l42.527-42.527a7.282,7.282,0,0,0-10.3-10.3Z"/><path class="cls-1" d="M40.76,67.089a7.259,7.259,0,0,0,5.149-2.133L88.436,22.429a7.282,7.282,0,1,0-10.3-10.3L35.61,54.658A7.282,7.282,0,0,0,40.76,67.089Z"/><path class="cls-1" d="M110.271,106.685,91.5,125.455a7.282,7.282,0,0,0,10.3,10.3l18.77-18.77a7.282,7.282,0,0,0-10.3-10.3Z"/><path class="cls-1" d="M36.108,22.227a7.283,7.283,0,0,0-10.3,0L7.043,41a7.282,7.282,0,0,0,10.3,10.3l18.766-18.77A7.283,7.283,0,0,0,36.108,22.227Z"/><path class="cls-1" d="M418.008,56.711c-11.729-3.008-14.643-4.46-14.643-8.92v-.2c0-3.3,3.008-5.911,8.721-5.911s11.646,2.527,17.662,6.695l7.76-11.259a39.351,39.351,0,0,0-25.224-8.627c-13.87,0-23.761,8.147-23.761,20.461v.2c0,13.484,8.826,17.265,22.5,20.753,11.353,2.914,13.682,4.846,13.682,8.638v.188c0,3.979-3.687,6.4-9.8,6.4-7.76,0-14.163-3.207-20.273-8.241l-8.826,10.57a43.234,43.234,0,0,0,28.806,10.862c14.643,0,24.931-7.562,24.931-21.046v-.2C439.545,65.254,431.785,60.3,418.008,56.711Z"/><path class="cls-1" d="M212.552,73.2c0,7.854-3.489,11.249-9.118,11.249-4.752,0-8.533-2.528-12.419-6.789l-9.4,10.476a27.746,27.746,0,0,0,22.205,10.183c14.361,0,24.054-7.948,24.054-24.44V29.463H212.552Z"/><polygon class="cls-1" points="265.704 69.811 297.716 69.811 297.716 56.525 265.704 56.525 265.704 42.749 302.072 42.749 302.072 29.453 250.862 29.453 250.862 97.353 302.562 97.353 302.562 84.068 265.704 84.068 265.704 69.811"/><polygon class="cls-1" points="320.338 43.232 340.997 43.232 340.997 97.355 355.933 97.355 355.933 43.232 376.592 43.232 376.592 29.456 320.338 29.456 320.338 43.232"/><polygon class="cls-1" points="506.62 29.456 450.365 29.456 450.365 43.232 471.025 43.232 471.025 97.355 485.961 97.355 485.961 43.232 506.62 43.232 506.62 29.456"/><path class="cls-1" d="M622.782,84.741c-11.646,0-19.7-9.693-19.7-21.339v-.188c0-11.646,8.251-21.151,19.7-21.151,6.789,0,12.115,2.914,17.359,7.666l9.5-10.967c-6.309-6.2-13.965-10.466-26.769-10.466-20.858,0-35.407,15.8-35.407,35.1v.2c0,19.49,14.842,34.916,34.822,34.916,13.1,0,20.858-4.658,27.835-12.126l-9.5-9.6C635.294,81.638,630.531,84.741,622.782,84.741Z"/><polygon class="cls-1" points="720.89 29.453 704.209 29.453 679.956 63.403 704.209 97.353 720.89 97.353 696.638 63.403 720.89 29.453"/><rect class="cls-1" x="664.109" y="29.453" width="14.936" height="67.9"/><path class="cls-1" d="M535.385,29.761,506.62,97.353h15.048l5.749-14.108H556.57l5.754,14.108h15.438L549,29.761Zm-3.021,41.347,9.625-23.618,9.632,23.618Z"/></svg>